<svg width="1440" height="338" viewBox="0 0 1440 338" fill="none" xmlns="http://www.w3.org/2000/svg">
<g clip-path="url(#clip0_57_2)">
<path d="M1214.27 96.8498C1213.57 97.8453 1211.7 103.607 1210.1 109.587C1207.28 119.987 1207.22 120.542 1208.54 122.476C1210.3 125.054 1213.53 125.609 1215.52 123.732C1216.32 122.906 1218 118.519 1219.59 112.917C1221.11 107.581 1222.59 103.611 1222.97 103.765C1227.23 105.747 1230.51 107.838 1234.09 110.872C1238.13 114.172 1238.69 114.897 1242.89 122.283C1246.53 128.566 1247.55 130.893 1248.12 133.855C1250.98 149.007 1247.39 162.381 1237.57 173.181C1234.55 176.535 1232.82 177.818 1227.44 180.948C1218.95 185.841 1211.78 187.527 1202.25 186.899L1199.31 186.707L1205.39 164.46C1211.11 143.539 1211.35 142.132 1210.27 140.215C1208.76 137.565 1206.22 136.77 1203.74 138.179C1202.1 139.108 1201.23 141.768 1195.44 162.431C1191.91 175.25 1189.02 186.583 1189.05 187.685C1189.15 190.09 1191.08 193.618 1193.03 194.822C1196.9 197.172 1210.62 197.288 1219.44 194.963C1226.69 193.156 1237.68 186.911 1242.92 181.696C1256.36 168.324 1261.95 148.368 1257.27 130.146C1255.73 124.159 1248.14 110.796 1243.82 106.465C1239.77 102.353 1232.29 97.2022 1227.18 95.0335C1220.85 92.2905 1216.99 92.8435 1214.27 96.8498Z" fill="black" fill-opacity="0.2"/>
<path d="M1283.62 57.4587C1282.98 58.4222 1282.4 60.166 1282.37 61.2999C1282.35 62.4339 1284.38 71.1255 1286.85 80.6065C1291.05 96.7917 1291.52 98.0154 1293.29 99.6929C1295.58 101.75 1299.76 102.283 1302.24 100.874C1303.93 99.9136 1326.31 78.2558 1328.71 75.254C1330.07 73.5846 1330.54 70.4813 1329.8 67.9941C1329.19 65.7325 1322.96 59.3543 1318.99 56.8347C1311.81 52.3361 1300.02 50.6085 1291.54 52.8867C1286.82 54.1533 1285.18 55.082 1283.62 57.4587ZM1299.49 61.4972C1304.2 61.1314 1310.87 63.1594 1315.1 66.1302C1317.18 67.5592 1319.03 69.1163 1319.32 69.6237C1319.73 70.3567 1318.81 71.6251 1315.94 74.4488C1313.73 76.5985 1309.29 80.9865 1306.01 84.2675C1302.75 87.4601 1299.9 90.0506 1299.66 90.0339C1299.37 89.9044 1295.91 77.252 1293.11 66.0168C1292.32 62.6609 1292.32 62.6609 1294.27 62.1512C1295.39 61.8887 1297.75 61.5892 1299.49 61.4972Z" fill="black" fill-opacity="0.2"/>
<path d="M1222.34 130.747C1221.42 132.016 1221.36 134.807 1222.23 136.329C1222.48 136.78 1223.68 137.443 1224.89 137.727C1226.83 138.263 1227.49 138.112 1231.61 135.774C1236.91 132.764 1237.86 131.029 1236 127.759C1234.27 124.714 1231.54 124.627 1226.89 127.341C1224.86 128.494 1222.77 130.057 1222.34 130.747Z" fill="black" fill-opacity="0.2"/>
<path d="M1267.73 114.812C1264.93 118.56 1264.47 134.034 1266.89 144.07C1268.8 152.158 1277.08 166.994 1281.82 170.867C1282.24 171.222 1281.89 172.17 1280.9 173.326C1279.09 175.396 1276.2 183.826 1276.3 186.754C1276.3 187.799 1276.17 188.764 1276 188.86C1275.78 188.988 1273.65 188.781 1271.25 188.502C1265.84 187.772 1258.08 188.299 1252.9 189.677C1247.49 191.183 1240.51 195.299 1236.94 199.118L1233.99 202.207L1230.47 202.045C1218.7 201.419 1206.28 205.794 1197.41 213.814C1195.44 215.603 1192.08 219.527 1189.94 222.602C1186.71 227.274 1185.74 229.387 1184.02 235.809C1180.29 249.191 1182 260.745 1189.4 272.579C1193.96 279.829 1198.55 284.233 1205.83 288.378C1210.11 290.794 1220.86 294.232 1224.02 294.151C1225.21 294.147 1225.34 294.372 1226.22 298.42C1227.31 303.618 1230.35 308.452 1234.43 311.431C1235.85 312.488 1237.07 313.44 1237.13 313.553C1237.19 313.666 1234.72 315.219 1231.62 316.981C1225.3 320.568 1223.51 322.405 1222.59 326.287C1221.43 331.343 1222.88 334.548 1231.17 345.202C1259.35 381.171 1301.82 400.005 1347.92 397.012L1356.2 396.487L1399.9 371.667L1443.59 346.847L1446.73 342.529C1458.44 326.634 1467.3 306.011 1470.78 286.661C1475.8 259.127 1471.83 228.497 1460.48 205.634C1456.49 197.685 1454.59 195.927 1449.55 195.584C1446.75 195.384 1445.67 195.703 1440.29 198.455C1435.37 200.952 1434.06 201.399 1433.48 200.762C1433.01 200.206 1433.54 199.306 1435.34 197.614C1442.47 190.732 1447.1 179.452 1445.89 171.936C1444.65 163.987 1439.69 158.529 1431.64 156.167C1429.07 155.461 1426.04 154.721 1424.85 154.581L1422.71 154.375L1423.34 149.695C1424.66 140.072 1422.92 130.842 1418.4 122.892C1413.31 113.927 1405.69 108.784 1396.3 108.003L1391.23 107.604L1388.85 104.332C1385.59 99.9165 1378.76 93.8022 1375.31 92.1847C1372.87 91.0363 1372.06 91.0502 1370.42 91.979C1368.11 93.292 1367.12 96.016 1368.24 97.9894C1368.66 98.7224 1370.64 100.505 1372.72 101.934C1375.98 104.259 1381.25 109.468 1381 110.208C1381.01 110.352 1379.75 111.29 1378.26 112.211L1375.62 114.006L1372.74 111.167C1367.59 106.039 1362.2 103.362 1355.1 102.548C1348.78 101.808 1343.01 103.071 1336.98 106.498C1330.75 110.109 1326.79 114.82 1323.71 122.389L1322.89 124.494L1319.56 123.624L1316.26 122.667L1317.43 119.469C1321.75 107.392 1333.35 97.746 1345.8 95.8963C1352.69 94.8927 1354.39 94.0768 1354.99 91.8665C1355.63 89.5679 1353.95 86.3464 1351.83 85.9066C1350.98 85.7194 1348.6 85.7293 1346.49 85.957C1329.57 87.6665 1314.41 99.7076 1308.28 116.236L1306.83 120.117L1290.83 115.708C1272.56 110.722 1270.87 110.637 1267.73 114.812ZM1304.45 129.449C1319.92 133.711 1332.61 137.396 1332.56 137.572C1332.45 137.781 1331.42 139.114 1330.16 140.574C1325.63 145.983 1323.93 158.357 1326.45 167.661C1327.24 170.494 1327.15 170.993 1325.98 171.287C1325.26 171.47 1323.07 172.341 1321.12 173.229L1317.51 174.756L1312.99 171.656C1306.87 167.449 1301.11 165.577 1295.32 165.883L1290.72 166.185L1287.66 162.775C1280.85 155.382 1275.94 143.852 1275.14 133.643C1274.74 128.873 1275.09 122.262 1275.77 121.878C1275.99 121.75 1288.89 125.161 1304.45 129.449ZM1348.58 112.215C1355.27 111.395 1360.89 113.276 1365.63 117.816C1367.07 119.163 1368.3 120.405 1368.36 120.518C1368.42 120.631 1367.46 122.076 1366.29 123.706C1365.07 125.367 1363.23 128.427 1362.18 130.515C1361.19 132.572 1360.18 134.338 1359.95 134.467C1359.78 134.563 1353.51 132.978 1346 130.908L1332.47 127.181L1333.62 124.216C1334.23 122.528 1335.56 120.28 1336.6 119.092C1339.01 116.235 1345.38 112.616 1348.58 112.215ZM1218.36 213.024C1220.42 212.45 1223.85 211.92 1225.93 211.781L1229.78 211.461L1229.44 214.935C1229.05 218.585 1228.74 219.212 1227.57 218.606C1226.17 217.838 1218.19 220.206 1213.85 222.672C1200.82 230.07 1195.44 245.136 1200.93 259.016C1205.02 269.37 1215.11 276.764 1226.22 277.541C1228.23 277.666 1229.85 278.016 1229.86 278.306C1229.82 278.628 1229.26 280.138 1228.5 281.689L1227.26 284.484L1224.67 284.389C1217.8 284.114 1207.73 279.246 1202.01 273.392C1198.64 269.941 1194.54 262.724 1193.21 257.886C1189.68 244.976 1193.66 230.711 1203.28 221.663C1207.13 218.062 1213.72 214.315 1218.36 213.024ZM1345.94 143.02C1349.82 143.279 1353.32 144.72 1357.37 147.642C1360.54 149.943 1363.13 150.561 1365.1 149.44C1365.89 148.991 1367.08 146.228 1368.22 142.073C1373.11 125.203 1386.04 115.022 1398.56 118.28C1410.72 121.44 1416.97 137.43 1412.56 153.954C1410.21 162.82 1411.27 164.825 1418.17 164.489C1427.12 164.102 1432.94 165.943 1435.21 169.946C1436.56 172.314 1436.73 176.69 1435.51 179.92C1434.07 183.946 1429.21 190.36 1424.77 194.225C1422.57 196.141 1420.54 198.34 1420.32 199.135C1419.72 200.968 1421.4 204.044 1423.77 205.603C1425.18 206.515 1425.41 206.91 1424.9 207.198C1424.51 207.422 1414.71 205.008 1403.22 201.842L1382.17 196.044L1387.58 176.418C1392.31 159.266 1392.84 156.654 1391.94 155.075C1390.63 152.763 1387.8 151.984 1385.49 153.297C1383.91 154.194 1383.02 156.709 1378.3 173.86L1372.86 193.43L1356.57 189.037C1339.27 184.319 1337.64 184.202 1334.27 187.459C1332.28 189.336 1330.87 196.177 1330.91 203.608L1330.97 210.139L1328.68 208.083C1327.43 206.929 1325.07 203.569 1323.06 200.162C1320 194.894 1319.65 193.896 1319.61 190.936C1319.59 186.552 1321.35 183.758 1325.41 181.975C1327.05 181.191 1329.81 180.522 1331.4 180.438C1335.11 180.271 1338.07 178.662 1338.54 176.604C1338.76 175.808 1338.14 172.879 1337.24 170.11C1335.41 164.516 1334.52 156.519 1335.34 152.322C1336.47 146.164 1340.55 142.58 1345.94 143.02ZM1297.1 175.459C1300.07 175.563 1303.54 176.948 1307.85 179.943L1311.14 182.179L1310.33 186.142C1309.25 191.456 1310.1 196.638 1313.19 202.863C1315.83 208.299 1320.74 214.456 1325.41 218.216L1328.06 220.37L1324.39 220.739C1319.36 221.208 1312.84 223.122 1309.51 225.011L1306.75 226.581L1292.55 222.715C1280.15 219.394 1278.12 218.978 1276.54 219.875C1274.17 221.22 1273.47 223.929 1274.79 226.24C1275.68 227.819 1277.26 228.491 1286.19 230.951C1295.03 233.387 1296.4 233.953 1295.63 234.836C1286.44 245.573 1282.44 256.646 1283.21 269.557C1283.38 273.265 1283.31 276.434 1282.97 276.626C1281.56 277.427 1274.45 276.845 1271.34 275.703C1263.02 272.746 1262.04 265.247 1268.67 254.994C1273.37 247.775 1272.78 246.471 1263.39 243.599C1249.46 239.284 1240.39 230.269 1239.05 219.391C1238.3 212.81 1241.5 206.891 1248.32 202.493C1256.13 197.463 1265.05 196.496 1276.22 199.477C1284.64 201.703 1286.4 200.477 1286 192.803C1285.44 181.187 1289.33 175.173 1297.1 175.459ZM1226.9 228.456C1230.32 228.304 1230.97 228.531 1231.77 229.941C1232.67 231.52 1232.56 231.729 1229.68 234.263C1221.16 241.712 1219.18 252.155 1224.26 263.066L1226.49 267.914L1223.83 267.416C1222.33 267.147 1219.38 265.764 1217.27 264.279C1210.13 259.459 1206.99 251.029 1209.25 242.807C1210.72 237.648 1213.63 233.98 1218.71 231.097C1222.26 229.08 1223.66 228.657 1226.9 228.456ZM1241.14 242.367C1244.9 245.828 1248.54 248.161 1253.92 250.548C1258.29 252.466 1258.59 252.74 1257.92 253.792C1256.29 256.434 1254.39 264.375 1254.54 267.794C1254.7 273.07 1258.1 279.047 1262.71 282.171C1267.07 285.135 1273.34 286.719 1280.01 286.511L1285.43 286.34L1266.75 297.029L1248.08 307.629L1245.62 306.714C1241.95 305.37 1239.78 303.771 1237.62 300.895C1233.2 294.827 1235.39 285.68 1243.11 278.389C1245.43 276.175 1245.94 273.273 1244.34 271.499C1243.79 270.919 1241.65 268.999 1239.65 267.305C1235.63 263.916 1232.54 259.259 1231.5 254.93C1230.29 250.173 1233.03 243.175 1237 240.845C1238.29 240.108 1238.82 240.254 1241.14 242.367ZM1356.37 203.916C1356.53 215.755 1363.34 226.953 1373.86 232.61L1377.03 234.388L1372.01 237.238C1367.62 239.736 1366.88 240.007 1366.4 239.162C1363.99 234.933 1354.29 227.17 1348.11 224.565L1344.58 223.068L1342.98 218.157C1341.22 212.82 1340.32 204.678 1340.77 198.905L1341.04 195.174L1348.73 197.293L1356.33 199.388L1356.37 203.916ZM1388.69 208.303C1405.58 212.955 1410.45 214.584 1409.88 215.283C1409.47 215.74 1404.72 218.663 1399.36 221.706L1389.61 227.246L1385.17 226.261C1377 224.487 1371.52 220.218 1368.34 213.301C1366.57 209.532 1365.32 203.006 1366.22 202.494C1366.51 202.334 1376.58 204.966 1388.69 208.303ZM1320.24 231.297C1332.8 228.337 1346.51 232.258 1355.3 241.288C1356.74 242.78 1358.1 244.247 1358.23 244.473C1358.35 244.698 1357.13 245.693 1355.44 246.653C1352.45 248.351 1352.39 248.383 1350.97 246.658C1350.13 245.715 1347.61 243.641 1345.32 242.107C1334.88 235.139 1320.19 235.8 1310.7 243.65C1301.86 251.059 1297.86 262.654 1300.48 273.318L1301.48 277.302L1298.49 278.999L1295.5 280.696L1294.58 278.016C1290.32 265.667 1293.94 250.113 1303.33 240.904C1306.86 237.407 1315.77 232.347 1320.24 231.297ZM1328.07 246.912C1330.09 246.805 1333.31 247.215 1335.17 247.872C1338.36 248.893 1343.8 252.293 1343.53 253.121C1343.48 253.298 1335.84 257.71 1326.62 262.873L1309.78 272.216L1309.54 267.727C1309.22 261.646 1311.37 256.247 1315.84 251.915C1318.25 249.581 1324.04 247.183 1328.07 246.912ZM1451.53 209.97C1452.98 212.652 1454.92 216.847 1455.83 219.238L1457.43 223.771L1436.74 235.524C1416.67 246.925 1416.02 247.366 1415.45 249.109C1414.65 251.649 1416.38 254.694 1418.97 255.312C1420.76 255.71 1421.47 255.382 1440.42 244.622L1460.04 233.477L1460.65 236.262C1462.9 246.393 1463.8 260.197 1462.94 271.278C1461.24 294.019 1453.74 315.354 1440.79 334.044L1436.69 339.953L1395.36 363.427L1354.04 386.902L1345.35 387.362C1318.45 388.844 1292.83 382.215 1270.36 367.985C1264.29 364.125 1254.78 356.701 1252.22 353.903L1250.8 352.323L1327.14 308.961C1403.2 265.759 1403.48 265.598 1404.08 263.766C1404.43 262.529 1404.27 261.201 1403.56 259.961C1402.86 258.72 1401.8 257.905 1400.56 257.564C1398.68 257.141 1398.4 257.301 1321.32 301.08C1275.54 327.084 1243.67 344.889 1243.34 344.703C1242.17 344.097 1232.24 330.422 1232.06 329.183C1231.89 328.089 1238 324.542 1340.35 266.561L1448.87 205.145L1451.53 209.97Z" fill="black" fill-opacity="0.2"/>
<path d="M1290.71 145.161C1290.31 147.621 1290.62 148.418 1292.61 149.823C1294.63 151.284 1296.88 150.903 1301.39 148.341C1306.24 145.587 1307.58 142.961 1305.67 139.867C1303.85 136.798 1301.88 136.873 1296.02 140.204C1291.28 142.894 1290.98 143.143 1290.71 145.161Z" fill="black" fill-opacity="0.2"/>
<path d="M1312.7 151.982C1310.8 154.406 1309.26 162.212 1310.32 164.072C1311.54 166.215 1314.74 166.859 1317.11 165.514C1318.68 164.617 1319.27 163.541 1320.37 159.184C1321.78 153.912 1321.47 151.924 1318.92 150.317C1317.17 149.219 1314.19 150.015 1312.7 151.982Z" fill="black" fill-opacity="0.2"/>
<path d="M1223.67 148.711C1222.32 152.383 1223.93 154.301 1229.62 155.917C1233.72 157.093 1234.77 157.096 1236.52 156.103C1239 154.694 1239.68 152.219 1238.3 149.794C1237.53 148.441 1236.28 147.81 1232.57 146.787C1226.68 145.212 1224.75 145.633 1223.67 148.711Z" fill="black" fill-opacity="0.2"/>
<path d="M1212.4 162.346C1211.98 163.849 1212.32 164.848 1214.6 168.851C1217.13 173.305 1217.47 173.636 1219.43 173.938C1221.89 174.331 1222.68 174.027 1224.15 172.004C1225.61 169.981 1225.05 167.165 1222.3 162.983C1220.37 159.978 1219.61 159.293 1218.06 159.055C1215.57 158.607 1213 160.136 1212.4 162.346Z" fill="black" fill-opacity="0.2"/>
</g>
<g clip-path="url(#clip1_57_2)">
<path d="M20.1427 125.966C17.1479 125.857 17.562 125.264 -0.851 156.084C-20.18 188.336 -20.2064 188.381 -20.8624 196.509C-21.2847 202.137 -19.7522 209.112 -16.9959 213.939L-15.179 217.124L-54.8489 283.725L-94.4745 350.351L-94.7611 352.94C-95.134 356.677 -94.3238 360.041 -92.3392 363.147C-90.8686 365.406 -89.9837 366.234 -87.2422 367.872C-81.715 371.174 -75.788 370.995 -70.53 367.417L-68.3862 365.938L-28.4952 299.469L11.3957 233.001L15.0618 233.092C20.5742 233.205 27.443 231.249 32.1986 228.21C39.0451 223.78 39.0979 223.692 58.3034 191.546C76.8749 160.461 76.5757 161.062 74.7599 158.477C73.697 156.942 72.6358 156.308 70.7804 156.099C67.688 155.752 67.8201 155.531 52.0224 181.973L37.4928 206.293L33.5132 203.915L29.5336 201.537L44.0633 177.218C54.7359 159.354 58.6187 152.554 58.7227 151.476C58.914 149.85 57.7437 147.591 56.2845 146.719C54.8253 145.847 52.2813 145.887 50.9404 146.826C50.0405 147.429 45.8924 154.07 35.2198 171.934L20.6901 196.254L16.7106 193.876L12.731 191.499L27.2606 167.179C37.9333 149.315 41.8161 142.515 41.92 141.437C42.2331 138.804 40.0642 136.308 37.1751 136.022C34.0827 135.675 34.2147 135.454 18.4171 161.896L3.88748 186.215L-0.0920913 183.838L-4.07167 181.46L10.4579 157.14C21.1306 139.277 25.0134 132.476 25.1174 131.398C25.4126 128.695 23.0226 126.067 20.1427 125.966ZM30.7363 216.296C27.1579 220.578 18.5065 223.51 12.4624 222.479C10.7041 222.208 8.37197 222.195 7.28603 222.506L5.28183 223.049L-35.1633 290.746C-79.122 364.324 -76.5325 360.291 -79.784 359.908C-81.6394 359.699 -82.7006 359.065 -83.7636 357.53C-85.6413 354.849 -87.9655 359.04 -44.0068 285.462L-3.61451 217.854L-3.94522 215.796C-4.11517 214.674 -4.49702 213.606 -4.80654 213.421C-6.17729 212.602 -9.12941 206.999 -9.966 203.679C-10.9094 199.935 -10.7864 194.909 -9.67852 192.15L-9.04564 190.489L11.4271 202.72L31.8998 214.951L30.7363 216.296Z" fill="black" fill-opacity="0.2"/>
<path d="M235.396 256.068C229.761 256.362 220.993 258.083 214.601 260.144C198.984 265.094 184.7 274.44 173.363 286.988C169.485 291.27 168.824 292.376 148.729 325.61C125.956 363.425 126.203 362.912 125.686 370.104C125.514 372.701 126.016 376.181 127.573 382.512L129.728 391.359L109.343 425.68C89.3187 459.497 89.0017 460.028 88.7415 462.573C88.3687 466.31 89.1789 469.674 91.1634 472.78C92.634 475.038 93.519 475.867 96.2604 477.505C101.788 480.807 107.715 480.628 112.973 477.049L115.116 475.57L178.783 369.306C226.397 289.812 242.458 262.627 242.659 261.487C242.903 259.773 241.733 257.514 240.097 256.536C239.478 256.167 237.366 255.985 235.396 256.068ZM106.853 468.713C105.486 469.696 102.915 469.781 101.412 468.882C100.13 468.116 98.7382 465.725 98.8508 464.532C98.8939 463.958 108.324 447.572 119.762 428.125L140.596 392.752L138.139 382.704C136.554 376.117 135.777 371.693 135.941 369.811L136.201 366.966L155.459 334.431C171.432 307.494 175.404 301.047 178.488 297.19C189.495 283.185 204.582 273.299 221.499 268.885L227.529 267.328L167.826 367.56C123.269 442.341 107.762 467.996 106.853 468.713Z" fill="black" fill-opacity="0.2"/>
<path d="M104.264 215.045C95.5737 211.112 83.8456 207.946 74.5333 207.062C68.87 206.499 67.1041 206.944 65.7304 209.243C64.5152 211.277 65.334 214.526 67.3238 215.715C68.1197 216.19 71.9816 217.058 75.9578 217.633C91.9774 219.944 106.122 225.995 118.464 235.768C133.247 247.48 143.115 262.196 148.406 280.657C150.264 286.987 150.539 287.631 152.175 288.609C154.739 290.141 157.662 289.367 159.22 286.758C160.251 285.034 160.241 284.548 158.942 279.692C153.169 258.122 140.652 239.604 122.747 226.087C118.138 222.554 109.445 217.42 104.264 215.045Z" fill="black" fill-opacity="0.2"/>
<path d="M94.7684 238.471C84.4507 233.747 71.3283 231.307 59.4571 231.895C52.5499 232.208 39.3411 235.537 33.1367 238.49C24.0551 242.845 16.504 248.353 9.69816 255.627C4.70822 260.866 -2.80296 273.539 -5.14846 280.477C-14.6442 308.825 -7.08836 338.659 14.8042 359.059C20.4411 364.286 32.026 371.208 39.2565 373.667C46.5312 376.154 51.7891 377.195 59.378 377.649C81.3763 379.092 102.534 370.492 118.059 353.847C122.934 348.599 129.944 337.067 132.29 330.429C140.242 308.18 137.627 284.537 125.091 265.048C119.173 255.872 112.589 249.418 102.975 243.314C99.4905 241.113 95.794 238.964 94.7684 238.471ZM103.662 256.325C119.392 269.263 127.901 289.167 126.421 309.822C125.99 315.565 124.228 323.033 121.889 328.655C108.796 360.613 71.9981 376.009 39.9253 362.907C14.5357 352.478 -1.20179 326.396 1.31719 298.98C4.33019 266.52 31.4827 242.062 64.423 242.062C78.3535 242.045 92.656 247.229 103.662 256.325Z" fill="black" fill-opacity="0.2"/>
<path d="M85.8315 263.372C84.0289 263.075 82.1229 264.157 80.987 266.058C78.3452 270.48 83.6375 275.682 87.9962 273.006C92.3107 270.303 90.9034 264.123 85.8315 263.372Z" fill="black" fill-opacity="0.2"/>
<path d="M67.1554 257.675C51.8536 256.573 36.5665 263.28 26.934 275.285C22.7038 280.558 22.2111 281.583 22.9053 284.338C23.5817 287.022 24.8645 288.089 27.4884 288.216C29.5115 288.345 30.764 287.353 34.3504 282.656C37.6548 278.33 41.9585 274.541 46.2207 272.228C50.7035 269.746 59.6569 267.715 65.1871 267.899C67.7931 267.956 70.4255 267.968 71.0348 267.852C72.7657 267.566 74.4489 265.452 74.5598 263.358C74.7563 259.816 72.4208 258 67.1554 257.675Z" fill="black" fill-opacity="0.2"/>
<path d="M98.0423 386.949C97.5387 386.888 93.2828 387.885 88.6565 389.201C70.045 394.342 54.533 394.195 36.9527 388.671C15.9428 382.059 -2.5744 366.856 -13.0782 347.681C-14.6827 344.742 -16.1883 342.642 -17.0727 342.114C-20.0708 340.203 -24.1838 342.066 -24.7248 345.582C-24.9948 347.641 -23.5403 350.73 -19.075 357.718C5.89163 396.874 54.8603 413.23 98.3527 396.974C99.6856 396.45 100.788 395.609 101.343 394.681C102.981 391.939 100.993 387.332 98.0423 386.949Z" fill="black" fill-opacity="0.2"/>
</g>
<defs>
<clipPath id="clip0_57_2">
<rect width="332" height="332" fill="white" transform="translate(1094 163.969) rotate(-29.5962)"/>
</clipPath>
<clipPath id="clip1_57_2">
<rect width="263.721" height="263.721" fill="white" transform="translate(18.2574 124) rotate(30.8559)"/>
</clipPath>
</defs>
</svg>
