<svg width="245" height="214" viewBox="0 0 245 214" fill="none" xmlns="http://www.w3.org/2000/svg">
<g clip-path="url(#clip0_31_1099)">
<path d="M20.1427 1.96631C17.1479 1.85711 17.562 1.2645 -0.851 32.0841C-20.18 64.3365 -20.2064 64.3807 -20.8624 72.5088C-21.2847 78.1366 -19.7522 85.1122 -16.9959 89.9389L-15.179 93.1244L-54.8489 159.725L-94.4745 226.351L-94.7611 228.94C-95.134 232.677 -94.3238 236.041 -92.3392 239.147C-90.8686 241.406 -89.9837 242.234 -87.2422 243.872C-81.715 247.174 -75.788 246.995 -70.53 243.417L-68.3862 241.938L-28.4952 175.469L11.3957 109.001L15.0618 109.092C20.5742 109.205 27.443 107.249 32.1986 104.21C39.0451 99.7801 39.0979 99.6916 58.3034 67.5455C76.8749 36.4606 76.5757 37.0619 74.7599 34.4771C73.697 32.942 72.6358 32.308 70.7804 32.0995C67.688 31.7519 67.8201 31.5309 52.0224 57.9729L37.4928 82.2926L33.5132 79.915L29.5336 77.5374L44.0633 53.2178C54.7359 35.3539 58.6187 28.5536 58.7227 27.4757C58.914 25.85 57.7437 23.5908 56.2845 22.719C54.8253 21.8472 52.2813 21.8873 50.9404 22.8262C50.0405 23.4286 45.8924 30.0704 35.2198 47.9343L20.6901 72.2539L16.7106 69.8763L12.731 67.4988L27.2606 43.1791C37.9333 25.3153 41.8161 18.515 41.92 17.4371C42.2331 14.8041 40.0642 12.3083 37.1751 12.0222C34.0827 11.6747 34.2147 11.4536 18.4171 37.8956L3.88748 62.2153L-0.0920913 59.8377L-4.07167 57.4601L10.4579 33.1405C21.1306 15.2766 25.0134 8.47631 25.1174 7.39844C25.4126 4.69481 23.0226 2.06689 20.1427 1.96631ZM30.7363 92.296C27.1579 96.5782 18.5065 99.5096 12.4624 98.4786C10.7041 98.208 8.37197 98.1948 7.28603 98.506L5.28183 99.0486L-35.1633 166.746C-79.122 240.324 -76.5325 236.291 -79.784 235.908C-81.6394 235.699 -82.7006 235.065 -83.7636 233.53C-85.6413 230.849 -87.9655 235.04 -44.0068 161.462L-3.61451 93.8535L-3.94522 91.7959C-4.11517 90.6744 -4.49702 89.6063 -4.80654 89.4213C-6.17729 88.6024 -9.12941 82.9986 -9.966 79.6788C-10.9094 75.9351 -10.7864 70.9086 -9.67852 68.1505L-9.04564 66.4886L11.4271 78.7198L31.8998 90.9511L30.7363 92.296Z" fill="black" fill-opacity="0.2"/>
<path d="M235.396 132.068C229.761 132.362 220.993 134.083 214.601 136.144C198.984 141.094 184.7 150.44 173.363 162.988C169.485 167.27 168.824 168.376 148.729 201.61C125.956 239.425 126.203 238.912 125.686 246.104C125.514 248.701 126.016 252.181 127.573 258.512L129.728 267.359L109.343 301.68C89.3187 335.497 89.0017 336.028 88.7415 338.573C88.3687 342.31 89.1789 345.674 91.1634 348.78C92.634 351.038 93.519 351.867 96.2604 353.505C101.788 356.807 107.715 356.628 112.973 353.049L115.116 351.57L178.783 245.306C226.397 165.812 242.458 138.627 242.659 137.487C242.903 135.773 241.733 133.514 240.097 132.536C239.478 132.167 237.366 131.985 235.396 132.068ZM106.853 344.713C105.486 345.696 102.915 345.781 101.412 344.882C100.13 344.116 98.7382 341.725 98.8508 340.532C98.8939 339.958 108.324 323.572 119.762 304.125L140.596 268.752L138.139 258.704C136.554 252.117 135.777 247.693 135.941 245.811L136.201 242.966L155.459 210.431C171.432 183.494 175.404 177.047 178.488 173.19C189.495 159.185 204.582 149.299 221.499 144.885L227.529 143.328L167.826 243.56C123.269 318.341 107.762 343.996 106.853 344.713Z" fill="black" fill-opacity="0.2"/>
<path d="M104.264 91.0447C95.5737 87.1125 83.8456 83.9456 74.5333 83.0621C68.87 82.4986 67.1041 82.9436 65.7304 85.2429C64.5152 87.2769 65.334 90.5261 67.3238 91.7149C68.1197 92.1904 71.9816 93.0577 75.9578 93.6332C91.9774 95.9439 106.122 101.995 118.464 111.768C133.247 123.48 143.115 138.196 148.406 156.657C150.264 162.987 150.539 163.631 152.175 164.609C154.739 166.141 157.662 165.367 159.22 162.758C160.251 161.034 160.241 160.548 158.942 155.692C153.169 134.122 140.652 115.604 122.747 102.087C118.138 98.5536 109.445 93.42 104.264 91.0447Z" fill="black" fill-opacity="0.2"/>
<path d="M94.7684 114.471C84.4507 109.747 71.3283 107.307 59.4571 107.895C52.5499 108.208 39.3411 111.537 33.1367 114.49C24.0551 118.845 16.504 124.353 9.69816 131.627C4.70822 136.866 -2.80296 149.539 -5.14846 156.477C-14.6442 184.825 -7.08836 214.659 14.8042 235.059C20.4411 240.286 32.026 247.208 39.2565 249.667C46.5312 252.154 51.7891 253.195 59.378 253.649C81.3763 255.092 102.534 246.492 118.059 229.847C122.934 224.599 129.944 213.067 132.29 206.429C140.242 184.18 137.627 160.537 125.091 141.048C119.173 131.872 112.589 125.418 102.975 119.314C99.4905 117.113 95.794 114.964 94.7684 114.471ZM103.662 132.325C119.392 145.263 127.901 165.167 126.421 185.822C125.99 191.565 124.228 199.033 121.889 204.655C108.796 236.613 71.9981 252.009 39.9253 238.907C14.5357 228.478 -1.20179 202.396 1.31719 174.98C4.33019 142.52 31.4827 118.062 64.423 118.062C78.3535 118.045 92.656 123.229 103.662 132.325Z" fill="black" fill-opacity="0.2"/>
<path d="M85.8315 139.372C84.0289 139.075 82.1229 140.157 80.987 142.058C78.3452 146.48 83.6375 151.682 87.9962 149.006C92.3107 146.303 90.9034 140.123 85.8315 139.372Z" fill="black" fill-opacity="0.2"/>
<path d="M67.1554 133.675C51.8536 132.573 36.5665 139.28 26.934 151.285C22.7038 156.558 22.2111 157.583 22.9053 160.338C23.5817 163.022 24.8645 164.089 27.4884 164.216C29.5115 164.345 30.764 163.353 34.3504 158.656C37.6548 154.33 41.9585 150.541 46.2207 148.228C50.7035 145.746 59.6569 143.715 65.1871 143.899C67.7931 143.956 70.4255 143.968 71.0348 143.852C72.7657 143.566 74.4489 141.452 74.5598 139.358C74.7563 135.816 72.4208 134 67.1554 133.675Z" fill="black" fill-opacity="0.2"/>
<path d="M98.0423 262.949C97.5387 262.888 93.2828 263.885 88.6565 265.201C70.045 270.342 54.533 270.195 36.9527 264.671C15.9428 258.059 -2.5744 242.856 -13.0782 223.681C-14.6827 220.742 -16.1883 218.642 -17.0727 218.114C-20.0708 216.203 -24.1838 218.066 -24.7248 221.582C-24.9948 223.641 -23.5403 226.73 -19.075 233.718C5.89163 272.874 54.8603 289.23 98.3527 272.974C99.6856 272.45 100.788 271.609 101.343 270.681C102.981 267.939 100.993 263.332 98.0423 262.949Z" fill="black" fill-opacity="0.2"/>
</g>
<defs>
<clipPath id="clip0_31_1099">
<rect width="263.721" height="263.721" fill="white" transform="translate(18.2574) rotate(30.8559)"/>
</clipPath>
</defs>
</svg>
