<svg width="346" height="338" viewBox="0 0 346 338" fill="none" xmlns="http://www.w3.org/2000/svg">
<g clip-path="url(#clip0_31_1089)">
<path d="M120.271 96.8498C119.569 97.8453 117.696 103.607 116.096 109.587C113.278 119.987 113.22 120.542 114.542 122.476C116.305 125.054 119.529 125.609 121.52 123.732C122.319 122.906 124.003 118.519 125.594 112.917C127.112 107.581 128.586 103.611 128.971 103.765C133.229 105.747 136.505 107.838 140.092 110.872C144.129 114.172 144.691 114.897 148.886 122.283C152.529 128.566 153.553 130.893 154.116 133.855C156.98 149.007 153.39 162.381 143.566 173.181C140.549 176.535 138.817 177.818 133.436 180.948C124.954 185.841 117.783 187.527 108.254 186.899L105.311 186.707L111.393 164.46C117.109 143.539 117.354 142.132 116.266 140.215C114.76 137.565 112.221 136.77 109.74 138.179C108.105 139.108 107.229 141.768 101.441 162.431C97.9092 175.25 95.0245 186.583 95.0538 187.685C95.1521 190.09 97.0813 193.618 99.0326 194.822C102.903 197.172 116.616 197.288 125.437 194.963C132.688 193.156 143.683 186.911 148.925 181.696C162.359 168.324 167.952 148.368 163.27 130.146C161.734 124.159 154.144 110.796 149.82 106.465C145.769 102.353 138.294 97.2022 133.184 95.0335C126.854 92.2905 122.992 92.8435 120.271 96.8498Z" fill="black" fill-opacity="0.2"/>
<path d="M189.623 57.4587C188.977 58.4222 188.401 60.166 188.374 61.2999C188.347 62.4339 190.375 71.1255 192.852 80.6065C197.049 96.7917 197.52 98.0154 199.293 99.6929C201.58 101.75 205.761 102.283 208.242 100.874C209.933 99.9136 232.309 78.2558 234.705 75.254C236.069 73.5846 236.543 70.4813 235.802 67.9941C235.188 65.7325 228.956 59.3543 224.989 56.8347C217.81 52.3361 206.016 50.6085 197.541 52.8867C192.816 54.1533 191.181 55.082 189.623 57.4587ZM205.489 61.4972C210.203 61.1314 216.873 63.1594 221.096 66.1302C223.176 67.5592 225.029 69.1163 225.318 69.6237C225.734 70.3567 224.814 71.6251 221.943 74.4488C219.734 76.5985 215.291 80.9865 212.009 84.2675C208.751 87.4601 205.897 90.0506 205.664 90.0339C205.367 89.9044 201.909 77.252 199.107 66.0168C198.32 62.6609 198.32 62.6609 200.267 62.1512C201.386 61.8887 203.751 61.5892 205.489 61.4972Z" fill="black" fill-opacity="0.2"/>
<path d="M128.338 130.747C127.418 132.016 127.363 134.807 128.227 136.329C128.484 136.78 129.68 137.443 130.886 137.727C132.831 138.263 133.491 138.112 137.607 135.774C142.907 132.764 143.861 131.029 142.003 127.759C140.274 124.714 137.539 124.627 132.892 127.341C130.862 128.494 128.767 130.057 128.338 130.747Z" fill="black" fill-opacity="0.2"/>
<path d="M173.726 114.812C170.933 118.56 170.475 134.034 172.894 144.07C174.803 152.158 183.081 166.994 187.816 170.867C188.242 171.222 187.885 172.17 186.901 173.326C185.094 175.396 182.201 183.826 182.298 186.754C182.295 187.799 182.172 188.764 182.003 188.86C181.777 188.988 179.646 188.781 177.25 188.502C171.839 187.772 164.085 188.299 158.901 189.677C153.493 191.183 146.509 195.299 142.936 199.118L139.992 202.207L136.47 202.045C124.705 201.419 112.275 205.794 103.407 213.814C101.44 215.603 98.0758 219.527 95.9445 222.602C92.7072 227.274 91.7446 229.387 90.0229 235.809C86.2884 249.191 88.0037 260.745 95.3966 272.579C99.9622 279.829 104.551 284.233 111.827 288.378C116.108 290.794 126.861 294.232 130.022 294.151C131.212 294.147 131.34 294.372 132.222 298.42C133.311 303.618 136.354 308.452 140.433 311.431C141.853 312.488 143.065 313.44 143.129 313.553C143.193 313.666 140.72 315.219 137.619 316.981C131.304 320.568 129.514 322.405 128.587 326.287C127.432 331.343 128.879 334.548 137.168 345.202C165.353 381.171 207.819 400.005 253.921 397.012L262.198 396.487L305.896 371.667L349.593 346.847L352.733 342.529C364.436 326.634 373.305 306.011 376.781 286.661C381.799 259.127 377.825 228.497 366.48 205.634C362.487 197.685 360.593 195.927 355.551 195.584C352.753 195.384 351.666 195.703 346.294 198.455C341.374 200.952 340.062 201.399 339.476 200.762C339.011 200.206 339.544 199.306 341.342 197.614C348.47 190.732 353.1 179.452 351.889 171.936C350.655 163.987 345.69 158.529 337.637 156.167C335.074 155.461 332.043 154.721 330.845 154.581L328.714 154.375L329.338 149.695C330.658 140.072 328.92 130.842 324.405 122.892C319.313 113.927 311.693 108.784 302.301 108.003L297.227 107.604L294.847 104.332C291.593 99.9165 284.764 93.8022 281.31 92.1847C278.868 91.0363 278.056 91.0502 276.421 91.979C274.109 93.292 273.121 96.016 274.241 97.9894C274.658 98.7224 276.64 100.505 278.719 101.934C281.978 104.259 287.249 109.468 286.998 110.208C287.006 110.352 285.748 111.29 284.258 112.211L281.623 114.006L278.743 111.167C273.593 106.039 268.195 103.362 261.096 102.548C254.784 101.808 249.014 103.071 242.981 106.498C236.754 110.109 232.793 114.82 229.709 122.389L228.891 124.494L225.564 123.624L222.26 122.667L223.427 119.469C227.753 107.392 239.352 97.746 251.799 95.8963C258.686 94.8927 260.386 94.0768 260.995 91.8665C261.628 89.5679 259.947 86.3464 257.833 85.9066C256.981 85.7194 254.6 85.7293 252.492 85.9571C235.566 87.6665 220.406 99.7076 214.282 116.236L212.833 120.117L196.831 115.708C178.562 110.722 176.873 110.637 173.726 114.812ZM210.452 129.449C225.923 133.711 238.606 137.396 238.557 137.572C238.452 137.781 237.419 139.114 236.16 140.574C231.626 145.983 229.929 158.357 232.455 167.661C233.243 170.494 233.154 170.993 231.979 171.287C231.262 171.47 229.072 172.341 227.116 173.229L223.509 174.756L218.988 171.656C212.871 167.449 207.109 165.577 201.317 165.883L196.716 166.185L193.66 162.775C186.851 155.382 181.943 143.852 181.141 133.643C180.743 128.873 181.09 122.262 181.766 121.878C181.992 121.75 194.892 125.161 210.452 129.449ZM254.58 112.215C261.274 111.395 266.891 113.276 271.632 117.816C273.068 119.163 274.296 120.405 274.36 120.518C274.424 120.631 273.455 122.076 272.293 123.706C271.074 125.367 269.232 128.427 268.181 130.515C267.186 132.572 266.177 134.338 265.951 134.467C265.782 134.563 259.512 132.978 251.998 130.908L238.471 127.181L239.621 124.216C240.229 122.528 241.562 120.28 242.602 119.092C245.006 116.235 251.378 112.616 254.58 112.215ZM124.361 213.024C126.421 212.45 129.849 211.92 131.932 211.781L135.778 211.461L135.439 214.935C135.052 218.585 134.736 219.212 133.572 218.606C132.166 217.838 124.189 220.206 119.848 222.672C106.823 230.07 101.436 245.136 106.933 259.016C111.024 269.37 121.115 276.764 132.22 277.541C134.231 277.666 135.846 278.016 135.862 278.306C135.821 278.628 135.262 280.138 134.502 281.689L133.256 284.484L130.666 284.389C123.798 284.114 113.725 279.246 108.014 273.392C104.637 269.941 100.537 262.724 99.2068 257.886C95.6773 244.976 99.6554 230.711 109.282 221.663C113.128 218.062 119.725 214.315 124.361 213.024ZM251.942 143.02C255.818 143.279 259.321 144.72 263.367 147.642C266.538 149.943 269.126 150.561 271.1 149.44C271.889 148.991 273.079 146.228 274.223 142.073C279.109 125.203 292.044 115.022 304.559 118.28C316.719 121.44 322.967 137.43 318.557 153.954C316.21 162.82 317.274 164.825 324.168 164.489C333.121 164.102 338.939 165.943 341.213 169.946C342.558 172.314 342.732 176.69 341.509 179.92C340.067 183.946 335.208 190.36 330.766 194.225C328.574 196.141 326.541 198.34 326.322 199.135C325.722 200.968 327.395 204.044 329.772 205.603C331.185 206.515 331.409 206.91 330.902 207.198C330.507 207.422 320.709 205.008 309.216 201.842L288.175 196.044L293.582 176.418C298.308 159.266 298.837 156.654 297.94 155.075C296.627 152.763 293.798 151.984 291.487 153.297C289.908 154.194 289.025 156.709 284.299 173.86L278.86 193.43L262.568 189.037C245.272 184.319 243.64 184.202 240.269 187.459C238.278 189.336 236.869 196.177 236.914 203.608L236.969 210.139L234.682 208.083C233.43 206.929 231.075 203.569 229.065 200.162C225.998 194.894 225.655 193.896 225.614 190.936C225.585 186.552 227.354 183.758 231.412 181.975C233.055 181.191 235.807 180.522 237.4 180.438C241.108 180.271 244.072 178.662 244.544 176.604C244.763 175.808 244.143 172.879 243.242 170.11C241.406 164.516 240.518 156.519 241.342 152.322C242.468 146.164 246.547 142.58 251.942 143.02ZM203.102 175.459C206.069 175.563 209.54 176.948 213.852 179.943L217.135 182.179L216.329 186.142C215.245 191.456 216.101 196.638 219.189 202.863C221.829 208.299 226.743 214.456 231.415 218.216L234.055 220.37L230.387 220.739C225.358 221.208 218.839 223.122 215.512 225.011L212.749 226.581L198.548 222.715C186.146 219.394 184.12 218.978 182.542 219.875C180.173 221.22 179.475 223.929 180.788 226.24C181.684 227.819 183.259 228.491 192.188 230.951C201.029 233.387 202.395 233.953 201.629 234.836C192.44 245.573 188.438 256.646 189.209 269.557C189.376 273.265 189.312 276.434 188.973 276.626C187.564 277.427 180.447 276.845 177.338 275.703C169.021 272.746 168.043 265.247 174.673 254.994C179.373 247.775 178.781 246.471 169.394 243.599C155.459 239.284 146.386 230.269 145.055 219.391C144.3 212.81 147.5 206.891 154.324 202.493C162.131 197.463 171.053 196.496 182.216 199.477C190.64 201.703 192.404 200.477 191.998 192.803C191.441 181.187 195.333 175.173 203.102 175.459ZM132.903 228.456C136.321 228.304 136.972 228.531 137.773 229.941C138.669 231.52 138.564 231.729 135.678 234.263C127.158 241.712 125.184 252.155 130.263 263.066L132.495 267.914L129.826 267.416C128.33 267.147 125.382 265.764 123.271 264.279C116.133 259.459 112.986 251.029 115.251 242.807C116.721 237.648 119.634 233.98 124.708 231.097C128.26 229.08 129.661 228.657 132.903 228.456ZM147.143 242.367C150.898 245.828 154.535 248.161 159.918 250.548C164.288 252.466 164.593 252.74 163.923 253.792C162.291 256.434 160.388 264.375 160.54 267.794C160.704 273.07 164.098 279.047 168.707 282.171C173.075 285.135 179.344 286.719 186.012 286.511L191.433 286.34L172.746 297.029L154.083 307.629L151.624 306.714C147.952 305.37 145.777 303.771 143.621 300.895C139.205 294.827 141.392 285.68 149.108 278.389C151.43 276.175 151.944 273.273 150.34 271.499C149.787 270.919 147.653 268.999 145.646 267.305C141.634 263.916 138.541 259.259 137.499 254.93C136.289 250.173 139.025 243.175 142.996 240.845C144.293 240.108 144.824 240.254 147.143 242.367ZM262.369 203.916C262.531 215.755 269.338 226.953 279.86 232.61L283.032 234.388L278.014 237.238C273.616 239.736 272.875 240.007 272.395 239.162C269.993 234.933 260.289 227.17 254.111 224.565L250.576 223.068L248.98 218.157C247.217 212.82 246.321 204.678 246.77 198.905L247.037 195.174L254.729 197.293L262.332 199.388L262.369 203.916ZM294.69 208.303C311.576 212.955 316.454 214.584 315.881 215.283C315.469 215.74 310.716 218.663 305.36 221.706L295.606 227.246L291.169 226.261C283.002 224.487 277.519 220.218 274.336 213.301C272.568 209.532 271.323 203.006 272.225 202.494C272.507 202.334 282.578 204.966 294.69 208.303ZM226.241 231.297C238.804 228.337 252.515 232.258 261.298 241.288C262.742 242.78 264.098 244.247 264.226 244.473C264.354 244.698 263.129 245.693 261.437 246.653C258.449 248.351 258.393 248.383 256.965 246.658C256.131 245.715 253.611 243.641 251.323 242.107C240.877 235.139 226.189 235.8 216.702 243.65C207.86 251.059 203.857 262.654 206.483 273.318L207.478 277.302L204.49 278.999L201.502 280.696L200.576 278.016C196.321 265.667 199.94 250.113 209.326 240.904C212.858 237.407 221.767 232.347 226.241 231.297ZM234.067 246.912C236.094 246.805 239.31 247.215 241.174 247.872C244.364 248.893 249.801 252.293 249.525 253.121C249.476 253.298 241.84 257.71 232.618 262.873L215.776 272.216L215.538 267.727C215.216 261.646 217.369 256.247 221.844 251.915C224.247 249.581 230.044 247.183 234.067 246.912ZM357.533 209.97C358.981 212.652 360.917 216.847 361.828 219.238L363.432 223.771L342.74 235.524C322.667 246.925 322.023 247.366 321.447 249.109C320.652 251.649 322.382 254.694 324.97 255.312C326.762 255.71 327.471 255.382 346.416 244.622L366.037 233.477L366.649 236.262C368.899 246.393 369.804 260.197 368.939 271.278C367.239 294.019 359.744 315.354 346.795 334.044L342.694 339.953L301.365 363.427L260.036 386.902L251.348 387.362C224.449 388.844 198.833 382.215 176.358 367.985C170.288 364.125 160.776 356.701 158.218 353.903L156.798 352.323L233.141 308.961C309.203 265.759 309.485 265.598 310.085 263.766C310.426 262.529 310.268 261.201 309.564 259.961C308.859 258.72 307.8 257.905 306.562 257.564C304.681 257.141 304.399 257.301 227.323 301.08C181.539 327.084 149.667 344.889 149.338 344.703C148.173 344.097 138.244 330.422 138.062 329.183C137.888 328.089 144.002 324.542 246.345 266.561L354.867 205.145L357.533 209.97Z" fill="black" fill-opacity="0.2"/>
<path d="M196.706 145.161C196.313 147.621 196.617 148.418 198.608 149.823C200.631 151.284 202.876 150.903 207.387 148.341C212.236 145.587 213.578 142.961 211.671 139.867C209.854 136.798 207.883 136.873 202.019 140.204C197.283 142.894 196.977 143.143 196.706 145.161Z" fill="black" fill-opacity="0.2"/>
<path d="M218.702 151.982C216.797 154.406 215.265 162.212 216.322 164.072C217.539 166.215 220.738 166.859 223.106 165.514C224.685 164.617 225.267 163.541 226.372 159.184C227.777 153.912 227.468 151.924 224.915 150.317C223.173 149.219 220.195 150.015 218.702 151.982Z" fill="black" fill-opacity="0.2"/>
<path d="M129.667 148.711C128.322 152.383 129.934 154.301 135.624 155.917C139.723 157.093 140.769 157.096 142.516 156.103C144.997 154.694 145.679 152.219 144.302 149.794C143.534 148.441 142.281 147.81 138.567 146.787C132.676 145.212 130.753 145.633 129.667 148.711Z" fill="black" fill-opacity="0.2"/>
<path d="M118.396 162.346C117.982 163.849 118.325 164.848 120.599 168.851C123.129 173.305 123.466 173.636 125.427 173.938C127.888 174.331 128.685 174.027 130.146 172.004C131.607 169.981 131.051 167.165 128.303 162.983C126.372 159.978 125.61 159.293 124.059 159.055C121.566 158.607 119.005 160.136 118.396 162.346Z" fill="black" fill-opacity="0.2"/>
</g>
<defs>
<clipPath id="clip0_31_1089">
<rect width="332" height="332" fill="white" transform="translate(0 163.969) rotate(-29.5962)"/>
</clipPath>
</defs>
</svg>
