<svg width="100" height="100" viewBox="0 0 100 100" fill="none" xmlns="http://www.w3.org/2000/svg">
<path d="M44.7564 13.1086H11.9849C9.50158 13.1086 7.11999 14.0951 5.36403 15.8511C3.60807 17.607 2.62158 19.9886 2.62158 22.4719V88.015C2.62158 90.4983 3.60807 92.8799 5.36403 94.6358C7.11999 96.3918 9.50158 97.3783 11.9849 97.3783H77.5279C80.0112 97.3783 82.3928 96.3918 84.1488 94.6358C85.9048 92.8799 86.8912 90.4983 86.8912 88.015V55.2434" stroke="#705CF2" stroke-width="4.68165" stroke-linecap="round" stroke-linejoin="round"/>
<path d="M79.8687 6.08614C81.7312 4.22367 84.2573 3.17734 86.8912 3.17734C89.5251 3.17734 92.0512 4.22367 93.9137 6.08614C95.7762 7.94862 96.8225 10.4747 96.8225 13.1086C96.8225 15.7426 95.7762 18.2686 93.9137 20.1311L49.438 64.6067L30.7114 69.2884L35.3931 50.5618L79.8687 6.08614Z" stroke="#705CF2" stroke-width="4.68165" stroke-linecap="round" stroke-linejoin="round"/>
</svg>
