<svg width="100" height="100" viewBox="0 0 100 100" fill="none" xmlns="http://www.w3.org/2000/svg">
<path d="M0.995891 0.273438C-0.000202626 0.820312 0.0193286 0.546875 0.0193286 14.1602C-0.000202608 28.418 -0.000202626 28.4375 1.36698 31.2109C2.32402 33.125 4.17948 35.0977 6.01542 36.1328L7.22636 36.8164L7.26542 66.2109L7.32402 95.6055L7.73417 96.5039C8.33964 97.793 9.25761 98.7305 10.5076 99.3555C11.4256 99.8047 11.8748 99.9023 13.0857 99.9023C15.5271 99.9023 17.4217 98.6914 18.4373 96.5039L18.8475 95.6055L18.906 66.2109L18.9646 36.8164L20.1756 36.1328C21.992 35.0977 23.8475 33.125 24.8045 31.2109C26.1717 28.4375 26.1717 28.3984 26.1717 14.1992C26.1717 0.46875 26.1912 0.722656 25.0975 0.234375C24.4529 -0.0585938 23.9842 -0.0585938 23.3396 0.234375C22.2654 0.722656 22.2654 0.625 22.2654 12.3047V23.0469H20.5076H18.7498V12.3047C18.7498 4.41406 18.6912 1.44531 18.5154 1.07422C18.2615 0.507812 17.4412 0 16.7967 0C16.1521 0 15.3318 0.507812 15.0779 1.07422C14.9021 1.44531 14.8435 4.41406 14.8435 12.3047V23.0469H13.0857H11.3279V12.3047C11.3279 4.41406 11.2693 1.44531 11.0935 1.07422C10.6834 0.15625 9.49198 -0.234375 8.49589 0.234375C7.42167 0.722656 7.42167 0.625 7.42167 12.3047V23.0469H5.66386H3.90605V12.3047C3.90605 4.41406 3.84745 1.44531 3.67167 1.07422C3.24199 0.136719 1.95292 -0.253906 0.995891 0.273438ZM22.0115 27.6172C21.6795 29.707 19.4334 32.3438 17.2654 33.1836C16.6404 33.4375 15.8787 33.8867 15.5857 34.1992L15.0389 34.7656V64.668C15.0389 97.168 15.0975 95.3516 13.9646 95.8594C13.3201 96.1523 12.8514 96.1523 12.2068 95.8594C11.074 95.3516 11.1326 97.168 11.1326 64.668V34.8047L10.6248 34.1992C10.3514 33.8672 10.0193 33.5938 9.88261 33.5938C9.27714 33.5938 7.22636 32.3438 6.30839 31.4258C5.27323 30.3906 4.33573 28.7305 4.15995 27.6172L4.04277 26.9531H13.0857H22.1287L22.0115 27.6172Z" fill="#705CF2"/>
<path d="M96.3671 0.761719C94.5897 1.95312 92.0702 4.21875 90.3905 6.13281C86.2694 10.7812 83.4374 16.6016 82.1874 22.8906C81.7577 25.0391 81.7577 25.5273 81.6796 40.2539C81.621 56.9922 81.6014 56.7773 82.8319 59.2188C83.2811 60.0977 84.121 61.1328 85.8592 62.8906L88.2811 65.3516L88.3202 80.4883C88.3788 95.3906 88.3788 95.625 88.7889 96.5039C89.3944 97.793 90.3124 98.7305 91.5624 99.3555C92.4803 99.8047 92.9296 99.9023 94.1405 99.9023C96.5819 99.9023 98.4764 98.6914 99.4921 96.5039L99.9022 95.6055L99.9608 48.6328C99.9999 13.4961 99.9413 1.52344 99.785 1.11328C99.5311 0.507812 98.7108 0 97.9881 0C97.7147 0 96.9921 0.351562 96.3671 0.761719ZM95.8788 94.9805C95.6249 95.5664 94.8046 96.0938 94.1405 96.0938C93.5741 96.0938 92.6561 95.5859 92.4608 95.1758C92.3631 94.9805 92.246 87.8125 92.1874 79.2578L92.0897 63.6914L89.3358 60.8984C87.5389 59.0625 86.4256 57.7734 86.1131 57.1289L85.6444 56.1523L85.5858 41.8164C85.5467 29.9414 85.5858 27.0703 85.8397 25.2148C86.6991 18.5156 89.6874 12.3633 94.3358 7.63672L95.996 5.95703L96.0546 50.1953C96.0936 83.2031 96.035 94.5703 95.8788 94.9805Z" fill="#705CF2"/>
<path d="M45.7029 12.9102C42.1091 13.3203 37.6755 14.5703 34.4724 16.0937C32.5193 17.0117 32.031 17.5 32.031 18.5156C32.031 19.4141 32.9294 20.3125 33.8083 20.3125C34.1599 20.3125 35.5857 19.8437 36.9919 19.2578C42.656 16.8945 48.4373 16.1133 54.3552 16.8945C61.4451 17.832 67.5193 20.7031 72.8318 25.6836C74.6677 27.3828 74.8826 27.5391 75.6052 27.5391C76.738 27.5391 77.5388 26.7187 77.5388 25.5664C77.5388 24.8047 77.4412 24.6484 76.074 23.3203C69.9998 17.4219 62.324 13.8281 53.8669 12.9102C51.6794 12.6562 47.8513 12.6758 45.7029 12.9102Z" fill="#705CF2"/>
<path d="M47.168 22.3828C42.8907 22.8516 38.1446 24.6094 34.3946 27.1094C32.2071 28.5547 28.5547 32.207 27.1094 34.375C25 37.5586 23.6133 40.8203 22.8125 44.5117C22.2071 47.1875 22.2266 52.7734 22.8125 55.4883C25.2344 66.5625 33.4961 74.8047 44.5899 77.1875C47.4414 77.793 52.5586 77.793 55.3907 77.1875C58.2422 76.582 60.1563 75.8984 62.7149 74.5703C70.1563 70.7617 75.3711 63.8477 77.1875 55.4102C77.7539 52.7539 77.793 47.6367 77.2657 45.0195C75.5274 36.2305 70.0782 29.043 62.2071 25.1367C58.4961 23.3008 55.0977 22.4805 50.7813 22.3633C49.2188 22.3242 47.5977 22.3438 47.168 22.3828ZM53.5352 26.4648C61.1719 27.6172 67.8125 32.4414 71.3477 39.4531C72.3242 41.4062 73.2032 44.1797 73.5352 46.4648C75.4883 59.4141 66.5039 71.582 53.5157 73.5547C43.2227 75.0977 33.0274 69.668 28.5157 60.2539C23.1836 49.1016 27.2657 35.8594 37.9883 29.4531C42.5196 26.7383 48.1836 25.6445 53.5352 26.4648Z" fill="#705CF2"/>
<path d="M49.1013 32.2266C48.4568 32.4805 48.0466 33.2031 48.0466 34.043C48.0466 35.9961 50.781 36.6602 51.6794 34.9414C52.5583 33.2227 50.8982 31.4844 49.1013 32.2266Z" fill="#705CF2"/>
<path d="M41.9141 34.0039C36.7188 36.621 33.0469 41.7773 32.2461 47.5585C31.8946 50.0976 31.9336 50.5273 32.6953 51.289C33.4375 52.0312 34.0625 52.1289 34.9414 51.6601C35.625 51.3085 35.8399 50.7421 36.0938 48.5156C36.3282 46.4648 36.9922 44.3945 37.9297 42.8124C38.9063 41.1328 41.4258 38.7304 43.2617 37.7148C44.1211 37.2265 44.9805 36.7187 45.1563 36.5624C45.6641 36.1328 45.8008 35.1171 45.4297 34.414C44.8047 33.2226 43.6914 33.0859 41.9141 34.0039Z" fill="#705CF2"/>
<path d="M77.1094 70.0782C76.9336 70.1563 75.7422 71.3087 74.4922 72.6368C69.4336 77.9297 64.3555 80.8985 57.5586 82.5196C49.4336 84.4532 40.4492 83.1055 33.3008 78.9063C32.207 78.2618 31.3086 77.8712 30.918 77.8712C29.5703 77.8321 28.5938 79.2383 29.1016 80.4883C29.4141 81.211 30.4883 81.9337 33.3008 83.3399C49.043 91.2305 68.1641 87.0313 79.1602 73.2813C79.4922 72.8516 79.6875 72.3633 79.6875 71.9532C79.6875 70.7422 78.1445 69.629 77.1094 70.0782Z" fill="#705CF2"/>
<path d="M24.043 73.3203C23.7891 73.4571 23.4571 73.7891 23.3204 74.043C22.2266 76.0157 24.8047 77.9688 26.3868 76.3868C27.9688 74.8047 26.0157 72.2266 24.043 73.3203Z" fill="#705CF2"/>
</svg>
