<svg width="93" height="502" viewBox="0 0 93 502" fill="none" xmlns="http://www.w3.org/2000/svg">
<path d="M75.104 479.178L75.104 450.506L92 450.506L92 501.066L2.144 501.067L2.144 479.179L75.104 479.178ZM92.896 366.85C92.896 375.298 90.9333 383.064 87.008 390.146C83.0827 397.144 77.6213 402.733 70.624 406.914C63.5413 411.01 55.6053 413.058 46.816 413.058C38.0267 413.058 30.1333 411.01 23.136 406.915C16.1387 402.733 10.6773 397.144 6.75199 390.146C2.82666 383.064 0.863992 375.298 0.863992 366.85C0.863991 358.402 2.82666 350.68 6.75199 343.682C10.6773 336.6 16.1387 331.053 23.136 327.042C30.1333 322.946 38.0267 320.898 46.816 320.898C55.6053 320.898 63.5413 322.946 70.624 327.042C77.6213 331.138 83.0827 336.685 87.008 343.682C90.9333 350.68 92.896 358.402 92.896 366.85ZM72.928 366.85C72.928 359.682 70.5387 353.965 65.76 349.698C60.9813 345.346 54.6667 343.17 46.816 343.17C38.88 343.17 32.5653 345.346 27.872 349.699C23.0933 353.965 20.704 359.682 20.704 366.85C20.704 374.104 23.0507 379.906 27.744 384.258C32.4373 388.525 38.7947 390.658 46.816 390.658C54.752 390.658 61.1093 388.525 65.888 384.258C70.5813 379.906 72.928 374.104 72.928 366.85ZM30.56 218.353C27.5733 219.975 25.312 222.321 23.776 225.393C22.1546 228.38 21.344 231.921 21.344 236.017C21.344 243.1 23.6907 248.775 28.384 253.041C32.992 257.308 39.1787 259.441 46.944 259.441C55.2213 259.441 61.7067 257.223 66.4 252.785C71.008 248.263 73.312 242.076 73.312 234.225C73.312 228.849 71.9467 224.327 69.216 220.657C66.4853 216.903 62.56 214.172 57.44 212.465L57.44 240.241L41.312 240.241L41.312 192.625L61.664 192.625C67.1253 194.247 72.2027 197.02 76.896 200.945C81.5893 204.785 85.3867 209.692 88.288 215.665C91.1893 221.639 92.64 228.38 92.64 235.889C92.64 244.764 90.72 252.7 86.88 259.697C82.9547 266.609 77.536 272.028 70.624 275.953C63.712 279.793 55.8187 281.713 46.944 281.713C38.0693 281.713 30.176 279.793 23.264 275.953C16.2667 272.028 10.848 266.609 7.00798 259.697C3.08265 252.785 1.11998 244.892 1.11998 236.017C1.11998 225.265 3.72265 216.22 8.92798 208.881C14.1333 201.457 21.344 196.551 30.56 194.161L30.56 218.353ZM2.14398 127.893L92 127.893L92 149.781L2.14398 149.781L2.14398 127.893ZM92 0.927486L92 22.8155L36.576 59.4235L92 59.4235L92 81.3115L2.14398 81.3115L2.14398 59.4235L57.824 22.8155L2.14398 22.8155L2.14397 0.92749L92 0.927486Z" fill="white" fill-opacity="0.2"/>
</svg>
