<svg width="100" height="100" viewBox="0 0 100 100" fill="none" xmlns="http://www.w3.org/2000/svg">
<path d="M38.8477 4.47262L38.2812 5.03902V9.47261V13.9062L38.8477 14.4726C39.4922 15.1171 40.625 15.2539 41.3281 14.7461C42.1289 14.1992 42.207 13.5742 42.1484 9.19918L42.0898 5.03902L41.4453 4.47262C40.5859 3.69137 39.6289 3.69137 38.8477 4.47262Z" fill="#705CF2"/>
<path d="M20.0978 9.27733C19.3946 9.64842 19.0235 10.6055 19.2579 11.4062C19.3556 11.7578 20.3126 13.5547 21.3673 15.3906C22.9689 18.1445 23.4181 18.789 23.9649 19.043C25.2149 19.6484 26.6407 18.7109 26.6407 17.3047C26.6407 16.5625 23.1251 10.332 22.2462 9.5117C21.6017 8.92576 20.8985 8.84764 20.0978 9.27733Z" fill="#705CF2"/>
<path d="M58.3594 9.27734C57.6367 9.6875 53.7109 16.5039 53.7109 17.3438C53.7109 18.2617 54.6289 19.2188 55.5078 19.2188C55.8984 19.2188 56.4062 19.082 56.6797 18.9062C57.1484 18.5938 60.918 12.2852 61.1719 11.3672C61.3281 10.8203 60.9766 9.80469 60.4883 9.41406C60.0195 9.02344 58.9453 8.94531 58.3594 9.27734Z" fill="#705CF2"/>
<path d="M35.6445 21.0937C28.1054 22.7344 22.1484 27.4023 18.9648 34.1992C15.8398 40.8398 16.0741 48.4375 19.5898 55.1367C20.7031 57.2852 21.2304 57.8125 22.207 57.8125C23.0859 57.8125 23.5546 57.5391 23.9257 56.8359C24.3749 55.9766 24.2968 55.5078 23.4374 54.082C21.4843 50.8008 20.8202 48.2422 20.8202 44.043C20.8007 40.3125 21.1523 38.75 22.6366 35.6445C23.7695 33.3203 24.5507 32.1875 26.3085 30.3906C30.0976 26.5625 34.8046 24.6094 40.2343 24.6094C45.5663 24.6094 50.1757 26.5234 53.9257 30.2539C56.289 32.6367 57.871 35.2734 58.9062 38.5742C59.5312 40.625 60.0195 41.2109 61.0351 41.2109C61.953 41.2109 62.4218 40.9375 62.8124 40.1953C63.1835 39.4727 63.1054 38.7695 62.3827 36.6016C59.9218 29.2187 53.6327 23.3789 45.957 21.3477C43.2616 20.6445 38.2616 20.5273 35.6445 21.0937Z" fill="#705CF2"/>
<path d="M5.99621 23.2617C5.01964 23.8281 4.86339 25.5469 5.72277 26.3086C6.66027 27.1484 12.7931 30.5078 13.4181 30.5273C14.2775 30.5469 15.0978 29.9023 15.3126 29.0625C15.6251 27.8125 15.1564 27.3437 11.2306 25.0781C7.65636 23.0078 6.87511 22.7539 5.99621 23.2617Z" fill="#705CF2"/>
<path d="M69.2384 24.9999C67.422 26.0742 65.7228 27.1679 65.4884 27.4414C64.8634 28.164 64.9025 29.1406 65.5861 29.9023C66.504 30.9374 67.0704 30.8007 70.9181 28.5742C72.754 27.5195 74.4728 26.4453 74.7267 26.1914C75.4103 25.5078 75.3712 24.3749 74.629 23.6132C73.6525 22.6367 73.047 22.7929 69.2384 24.9999Z" fill="#705CF2"/>
<path d="M0.683564 42.6171C-0.410186 43.5742 -0.0976859 45.2343 1.2695 45.8203C2.24606 46.2109 9.10153 46.2109 10.0781 45.8007C10.9765 45.4296 11.4453 44.3945 11.1328 43.457C10.7422 42.246 10.4687 42.1875 5.58591 42.1875C1.30856 42.1875 1.17185 42.207 0.683564 42.6171Z" fill="#705CF2"/>
<path d="M66.2109 42.4805C61.621 43.457 57.539 46.0547 54.8632 49.707L54.0038 50.8984L52.8515 50.5469C50.2929 49.7656 46.953 49.7461 44.3749 50.4883C40.7421 51.5625 37.2265 54.414 35.5273 57.7148L34.9023 58.9062L33.7109 58.7304C33.0468 58.6328 31.7382 58.6133 30.7616 58.6719C22.6757 59.1992 16.0546 64.4726 13.7499 72.207C13.1249 74.3164 12.9101 78.1054 13.2812 80.3906C14.0819 85.4101 16.9726 89.9804 21.1523 92.8125C22.7343 93.8867 25.1952 95.039 27.0507 95.5469L28.6132 95.9961L57.0312 96.0547C87.9882 96.1133 86.9335 96.1328 89.7655 95C93.4569 93.5351 96.3476 90.9375 98.1249 87.5C99.2577 85.332 99.7851 83.3789 99.9413 80.957C100.332 73.9844 96.1913 67.6758 89.4726 65.0586L88.164 64.5508L88.3398 63.6719C88.4179 63.1836 88.4569 61.5625 88.4179 60.0586C88.3398 57.832 88.2226 56.9922 87.8124 55.6054C86.914 52.5781 85.4687 50.1172 83.3202 47.8711C80.9374 45.4101 78.3398 43.8281 75.0585 42.8515C73.6132 42.4023 72.8905 42.3242 70.4101 42.2656C68.4179 42.2265 67.0702 42.2851 66.2109 42.4805ZM73.1054 46.4062C74.9218 46.7969 77.7148 48.164 79.1991 49.3554C81.328 51.0742 83.0273 53.5937 83.9843 56.4453C84.6484 58.3984 84.746 62.0898 84.1991 64.2578C83.9843 65.1562 83.789 66.1133 83.789 66.3672C83.789 67.207 84.7265 67.8711 86.3866 68.2422C93.0273 69.7265 97.246 76.2109 95.7812 82.6758C95.371 84.4531 94.9413 85.4492 93.9648 86.8945C92.3046 89.3359 89.414 91.289 86.6015 91.8945C85.4491 92.1289 81.0741 92.1875 57.7538 92.1875C27.7343 92.1875 28.8085 92.2265 26.0741 91.0742C22.7538 89.6679 19.7265 86.7578 18.2421 83.4961C16.6796 80.1172 16.5624 75.4883 17.9101 72.0703C19.8827 67.1484 24.0624 63.6914 29.1991 62.7929C31.3671 62.4219 31.9921 62.4219 34.5116 62.832C36.328 63.125 36.621 63.125 37.0702 62.8711C37.6171 62.5781 37.6757 62.4804 38.7304 60.1562C41.2499 54.6094 47.5585 52.3437 53.3007 54.9023C53.9843 55.2148 54.746 55.4687 54.9804 55.4687C55.664 55.4687 56.3476 54.8047 57.1288 53.3984C59.0038 50.0586 62.871 47.207 66.6991 46.3867C68.3398 46.0156 71.4257 46.0351 73.1054 46.4062Z" fill="#705CF2"/>
<path d="M9.27723 59.6484C6.4452 61.2695 5.68348 61.7969 5.39051 62.3438C4.9413 63.1445 5.05848 63.8672 5.76161 64.5703C6.64051 65.4492 7.36317 65.2539 10.8593 63.2617C14.785 60.9961 15.1952 60.7031 15.3319 59.8828C15.4882 59.1406 15.0585 58.1445 14.4725 57.8125C13.5546 57.3438 12.8515 57.5977 9.27723 59.6484Z" fill="#705CF2"/>
</svg>
