<svg width="100" height="100" viewBox="0 0 100 100" fill="none" xmlns="http://www.w3.org/2000/svg">
<path d="M49.0435 0.273438C48.106 0.78125 48.0669 1.11328 48.0474 6.50391C48.0474 10.625 48.106 11.6406 48.3403 12.1094C48.6919 12.793 49.1802 13.0859 50.0005 13.0859C50.8208 13.0859 51.3091 12.793 51.6606 12.1094C51.895 11.6406 51.9536 10.625 51.9536 6.5625C51.9536 3.125 51.8755 1.42578 51.7192 1.07422C51.2896 0.136719 50.0005 -0.253906 49.0435 0.273438Z" fill="#705CF2"/>
<path d="M24.9807 6.7383C24.3753 7.07033 23.9456 8.00783 24.0628 8.6719C24.1214 8.9258 25.2737 11.0742 26.6604 13.4766C28.7503 17.0899 29.2581 17.8516 29.805 18.1055C31.055 18.711 32.5198 17.7539 32.5003 16.3477C32.4807 15.4492 27.6565 7.1094 26.9143 6.71877C26.2503 6.36721 25.6253 6.38674 24.9807 6.7383Z" fill="#705CF2"/>
<path d="M73.0669 6.71876C72.7544 6.89454 71.6411 8.59376 70.0396 11.3477C67.9692 14.9219 67.52 15.8594 67.52 16.4648C67.5396 17.8711 69.0044 18.7305 70.2739 18.0859C70.7231 17.8516 71.4263 16.7969 73.3599 13.457C74.7271 11.0742 75.8794 8.92579 75.938 8.67188C76.231 7.14844 74.4536 5.95704 73.0669 6.71876Z" fill="#705CF2"/>
<path d="M46.4849 19.0625C34.4341 20.586 24.2778 28.8281 20.5083 40.1758C19.2974 43.8281 19.063 45.3906 19.063 50C19.063 53.5938 19.1216 54.4727 19.4927 56.1133C21.2896 64.2383 25.6646 70.8594 32.3052 75.5469C35.5083 77.8125 40.02 79.707 44.3364 80.6055C46.895 81.1328 53.5161 81.0938 56.1138 80.5078C68.8286 77.6953 78.1255 68.2422 80.606 55.5664C81.1333 52.8906 81.0747 46.5039 80.5083 43.8867C77.7349 31.3086 68.3403 21.9922 55.8599 19.4336C54.4341 19.1211 47.9497 18.8867 46.4849 19.0625ZM54.1997 23.1445C59.7075 24.0235 64.688 26.5039 68.6919 30.332C71.1724 32.7149 72.7935 34.9219 74.3169 37.9883C76.2896 41.9727 77.1489 45.586 77.1489 50C77.1489 54.4141 76.2896 58.0274 74.3169 62.0117C72.7935 65.0781 71.1724 67.2852 68.6919 69.668C58.2036 79.6875 41.7974 79.668 31.2896 69.6485C28.8286 67.3047 27.188 65.0586 25.6841 62.0117C23.6919 58.0078 22.8521 54.4336 22.8521 50C22.8521 45.5664 23.6919 41.9922 25.6841 37.9883C27.188 34.9414 28.8286 32.6953 31.2896 30.3516C35.2544 26.5625 40.2739 24.043 45.6841 23.1445C47.7349 22.793 52.0708 22.793 54.1997 23.1445Z" fill="#705CF2"/>
<path d="M7.44178 24.2969C6.52381 24.8047 6.21131 25.9375 6.71913 26.9141C7.10975 27.6562 15.4496 32.4805 16.348 32.5C17.2074 32.5 18.0277 31.8555 18.2426 31.0156C18.5746 29.707 18.1449 29.3359 13.2816 26.543C10.7621 25.0977 8.69178 24.0234 8.39881 24.0234C8.12538 24.043 7.69569 24.1602 7.44178 24.2969Z" fill="#705CF2"/>
<path d="M86.6606 26.582C83.2231 28.5742 82.1489 29.2773 81.9145 29.7266C81.27 30.9961 82.1293 32.4609 83.5356 32.4805C84.141 32.4805 85.0981 32.0117 88.6332 29.9609C93.0278 27.4219 93.5551 27.0117 93.5551 25.9961C93.5551 24.9609 92.5981 24.0234 91.5629 24.0234C91.309 24.0234 89.102 25.1758 86.6606 26.582Z" fill="#705CF2"/>
<path d="M0.996469 48.3203C0.0785006 48.8281 -0.233999 49.9609 0.273813 50.957C0.762094 51.8945 1.19178 51.9531 6.56288 51.9531C11.8363 51.9531 12.4223 51.875 12.891 50.9961C13.2426 50.3125 13.1254 49.2773 12.6176 48.6914L12.1488 48.1445L6.79725 48.1055C2.61756 48.0664 1.36756 48.1055 0.996469 48.3203Z" fill="#705CF2"/>
<path d="M87.9694 48.2422C87.0514 48.6133 86.6217 50.0391 87.11 50.9961C87.5787 51.875 88.1647 51.9531 93.4576 51.9531C98.8873 51.9531 99.317 51.875 99.7662 50.8789C100.059 50.2344 100.059 49.7656 99.7662 49.1211C99.317 48.1055 98.8873 48.0469 93.4186 48.0664C90.6451 48.0664 88.1842 48.1445 87.9694 48.2422Z" fill="#705CF2"/>
<path d="M15.5278 67.6953C15.2153 67.8516 13.145 69.0234 10.9771 70.2734C6.97314 72.5586 6.4458 73.0078 6.4458 74.0039C6.4458 75.0391 7.40283 75.9766 8.43799 75.9766C8.69189 75.9766 10.8794 74.8438 13.2817 73.457C18.0669 70.7227 18.5161 70.3125 18.2817 69.0625C18.0474 67.8125 16.6411 67.1094 15.5278 67.6953Z" fill="#705CF2"/>
<path d="M83.106 67.5195C82.481 67.6758 81.856 68.3789 81.7192 69.043C81.4849 70.3125 81.8755 70.6641 86.5435 73.3594C88.9263 74.7266 91.0747 75.8789 91.3286 75.9375C92.3833 76.1328 93.5552 75.1367 93.5552 74.0235C93.5552 73.125 93.0083 72.5586 91.0747 71.4649C90.02 70.8399 88.0864 69.7266 86.7583 68.9649C84.3169 67.5586 83.7896 67.3438 83.106 67.5195Z" fill="#705CF2"/>
<path d="M29.6682 81.9336C29.3166 82.1289 28.3401 83.6133 26.6409 86.543C25.2737 88.9258 24.1213 91.0742 24.0627 91.3281C23.8674 92.3828 24.8635 93.5547 25.9768 93.5547C26.9924 93.5547 27.4221 93.0273 29.7268 89.0234C32.8127 83.6719 32.6955 83.9258 32.4221 83.125C32.3049 82.7734 32.051 82.3242 31.8557 82.1484C31.3479 81.6797 30.2737 81.582 29.6682 81.9336Z" fill="#705CF2"/>
<path d="M68.6528 81.8164C67.9692 82.1094 67.52 82.7734 67.52 83.5352C67.52 84.1406 67.9888 85.0977 70.0396 88.6328C72.5786 93.0469 72.9888 93.5547 74.0239 93.5547C75.1372 93.5547 76.1333 92.3828 75.938 91.3281C75.8794 91.0742 74.7271 88.9258 73.3599 86.543C70.5278 81.6602 70.1177 81.2305 68.6528 81.8164Z" fill="#705CF2"/>
<path d="M48.6917 87.3828L48.1448 87.8516L48.0862 93.0859C48.0276 98.7695 48.0862 99.2187 49.0433 99.707C49.7073 100.059 50.2151 100.078 50.8792 99.7656C51.8753 99.3164 51.9534 98.8867 51.9534 93.457C51.9534 88.1641 51.8753 87.5781 50.9964 87.1094C50.3128 86.7578 49.2776 86.875 48.6917 87.3828Z" fill="#705CF2"/>
</svg>
